<svg id="Layer_1" data-name="Layer 1" xmlns="http://www.w3.org/2000/svg" viewBox="0 0 81.64 14.66"><defs><style>.cls-1{fill:#fff;}</style></defs><path class="cls-1" d="M5.26,12.82a3.58,3.58,0,0,1-2.63-1.1,3.71,3.71,0,0,1,0-5.27,3.58,3.58,0,0,1,2.63-1.1A3.06,3.06,0,0,1,7.46,6V5.44H9v7.29H7.46v-.56A3.06,3.06,0,0,1,5.26,12.82Zm0-5.93a2.12,2.12,0,0,0-1.55.65,2.2,2.2,0,0,0,0,3.1,2.1,2.1,0,0,0,1.55.64,2.19,2.19,0,0,0,2.2-2.19,2.2,2.2,0,0,0-2.2-2.2Z"/><path class="cls-1" d="M14.33,5.35V6.89h-.39a1.48,1.48,0,0,0-1.07.44,1.5,1.5,0,0,0-.44,1.07v4.33H10.89V5.44h1.54V5.7a3.84,3.84,0,0,1,1.51-.35Z"/><path class="cls-1" d="M18.09,12.82a3.28,3.28,0,0,1-1.65-.44,2.92,2.92,0,0,1-1.28-1.8l1.48-.42a1.43,1.43,0,0,0,.61.92,1.74,1.74,0,0,0,.84.2h.14l.14,0a1.2,1.2,0,0,0,.35-.1.69.69,0,0,0,.42-.62A.44.44,0,0,0,19,10.2a1.3,1.3,0,0,0-.91-.35A3.6,3.6,0,0,1,15.78,9a1.72,1.72,0,0,1-.42-.69,1.9,1.9,0,0,1-.11-.63,2.15,2.15,0,0,1,.86-1.77,2.9,2.9,0,0,1,1.81-.58,2.81,2.81,0,0,1,2.1.89,4,4,0,0,1,.73,1.21L19.32,8l-.2-.37a1.58,1.58,0,0,0-.22-.29,1.33,1.33,0,0,0-1-.42l-.19,0a1.59,1.59,0,0,0-.39.1.71.71,0,0,0-.53.69q0,.25.39.42a3.55,3.55,0,0,0,1.05.2,3.34,3.34,0,0,1,1.26.32,2.76,2.76,0,0,1,.71.55,1.92,1.92,0,0,1,.47,1.46,2.15,2.15,0,0,1-.89,1.65,2.8,2.8,0,0,1-1.69.52Z"/><path class="cls-1" d="M25.51,12.82a3.6,3.6,0,0,1-2.63-1.1,3.71,3.71,0,0,1,0-5.27,3.6,3.6,0,0,1,2.63-1.1,3,3,0,0,1,2.2.65V5.44h1.54v7.29H27.71v-.56A3,3,0,0,1,25.51,12.82Zm0-5.93A2.12,2.12,0,0,0,24,7.54a2.2,2.2,0,0,0,0,3.1,2.2,2.2,0,0,0,3.75-1.55,2.1,2.1,0,0,0-.64-1.55A2.13,2.13,0,0,0,25.51,6.89Z"/><path class="cls-1" d="M37.24,12.73H35.7V8.4a1.5,1.5,0,0,0-.44-1.07,1.51,1.51,0,0,0-2.13,0,1.46,1.46,0,0,0-.44,1.07v4.33H31.15V5.44h1.54v.3a3,3,0,0,1,1.51-.39,2.9,2.9,0,0,1,2.14.9,2.92,2.92,0,0,1,.9,2.15Z"/><path class="cls-1" d="M42.39,12.82a3.74,3.74,0,0,1-3.73-3.73,3.74,3.74,0,0,1,3.73-3.74A3,3,0,0,1,44.58,6V5.44h1.54v7.29H44.58v-.56A3,3,0,0,1,42.39,12.82Zm0-5.93a2.2,2.2,0,0,0-2.19,2.2,2.19,2.19,0,1,0,3.74-1.55A2.12,2.12,0,0,0,42.39,6.89Z"/><path class="cls-1" d="M54.11,12.73H52.58V8.4A1.51,1.51,0,0,0,50,7.33a1.5,1.5,0,0,0-.44,1.07v4.33H48V5.44h1.54v.3a3,3,0,0,1,1.51-.39,2.92,2.92,0,0,1,2.15.9,3,3,0,0,1,.89,2.15Z"/><path class="cls-1" d="M59.27,12.82a3.56,3.56,0,0,1-2.64-1.1,3.69,3.69,0,0,1,0-5.26,3.57,3.57,0,0,1,2.64-1.11A3.29,3.29,0,0,1,61.46,6V1.71H63v11H61.46v-.56A3,3,0,0,1,59.27,12.82Zm0-5.92a2.12,2.12,0,0,0-1.56.64,2.2,2.2,0,0,0,0,3.1,2.2,2.2,0,0,0,3.75-1.55,2.14,2.14,0,0,0-.64-1.55A2.11,2.11,0,0,0,59.27,6.9Z"/><path class="cls-1" d="M75.92,12.82a3.74,3.74,0,0,1-3.73-3.73,3.74,3.74,0,0,1,3.73-3.74A3,3,0,0,1,78.11,6V5.44h1.54v7.29H78.11v-.56A3,3,0,0,1,75.92,12.82Zm0-5.93a2.2,2.2,0,0,0-2.19,2.2,2.19,2.19,0,1,0,3.74-1.55A2.12,2.12,0,0,0,75.92,6.89Z"/><path class="cls-1" d="M64.68,12.73h1.54V8.4a1.46,1.46,0,0,1,.43-1.07,1.48,1.48,0,0,1,1.07-.44A1.5,1.5,0,0,1,69.23,8.4v4.33h1.53V8.4a3,3,0,0,0-3-3.05,3.11,3.11,0,0,0-1.5.39V4.8H64.68Z"/><rect class="cls-1" x="64.68" y="1.71" width="1.54" height="1.54"/><rect class="cls-1" x="44.58" y="3.26" width="20.1" height="1.54"/><rect class="cls-1" x="66.22" y="3.26" width="13.44" height="1.54"/></svg>